<svg xmlns="http://www.w3.org/2000/svg" version="1.1" xmlns:xlink="http://www.w3.org/1999/xlink" width="512" height="512" x="0" y="0" viewBox="0 0 128 128" style="enable-background:new 0 0 512 512" xml:space="preserve" class=""><g><linearGradient id="a"><stop stop-opacity="1" stop-color="#f58220" offset="0"></stop><stop stop-opacity="1" stop-color="#3a42cf" offset="1"></stop><stop stop-opacity="1" stop-color="#3a42cf" offset="1"></stop></linearGradient><linearGradient xlink:href="#a" id="b" x1="185.264" x2="-22.3" y1="107.577" y2="36.107" gradientUnits="userSpaceOnUse"></linearGradient><linearGradient xlink:href="#a" id="c" x1="78.614" x2="151.335" y1="13.177" y2="38.216" gradientUnits="userSpaceOnUse"></linearGradient><linearGradient xlink:href="#a" id="d" x1="105.985" x2="12.89" y1="51.237" y2="19.182" gradientUnits="userSpaceOnUse"></linearGradient><linearGradient xlink:href="#a" id="e" x1="113.229" x2="66.989" y1="84.214" y2="68.292" gradientUnits="userSpaceOnUse"></linearGradient><g fill-rule="evenodd" clip-rule="evenodd"><path d="m2.5 102.9 62-4.5 29 1.6 28.4 15.8c.3.2-.2.4-1.1.5l-73.4 11.6c-.9.1-2 .1-2.3-.1L1.4 103.4c-.4-.2.1-.4 1.1-.5z" opacity="0.6901960784313725" fill="#000000" data-original="#00000020" class=""></path><path fill="url(#a)" d="m47.5 0 57.8 12 21.5 21.4v80.9c0 .9-.7 1.5-1.7 1.6L47.5 128c-.9.1-1.7-.7-1.7-1.6V1.7c0-.9.7-1.7 1.7-1.7z" opacity="1" data-original="url(#a)" class=""></path><path d="m48.2.1 1 .2.3.1v127.3l-1.3.2zm3.4.7.6.2v126.3l-1.3.2V.7zm3.2 126-1.3.2V1.2l1.3.3z" opacity="0.6901960784313725" fill="#000000" data-original="#00000020" class=""></path><path d="M104.1 12h1.1l21.5 21.4v1.1h-19c-2 0-3.7-1.6-3.7-3.7V12z" opacity="1" fill="#00000040" data-original="#00000040" class=""></path><path fill="url(#a)" d="M126.7 33.4h-19c-1.4 0-2.5-1.1-2.5-2.5V12z" opacity="1" data-original="url(#a)" class=""></path><path d="m45.9 57.7-.1-50.6 48.1 9.3c2.5.5 4.6 2.1 4.6 4.6v19.7c0 2.5-2 4.3-4.5 4.9z" opacity="1" fill="#00000040" data-original="#00000040" class=""></path><path fill="url(#a)" d="m31.5 4.4 63.5 12c1.9.4 3.5 1.6 3.5 3.5v20.7c0 1.9-1.6 3.2-3.5 3.5L31.5 56.3c-1.9.4-3.5-1.6-3.5-3.5V7.9C27.9 6 29.6 4 31.5 4.4z" opacity="1" data-original="url(#a)" class=""></path><path fill="#ffffff" d="M56.6 35.3c-.3 2-1 3.5-2.1 4.6s-2.5 1.6-4.2 1.6c-2.1 0-3.7-.9-4.8-2.7-1-1.8-1.6-4.6-1.6-8.3 0-3.9.5-6.7 1.6-8.5s2.8-2.7 5.1-2.7c1.6 0 2.9.5 3.9 1.4s1.6 2.3 2 4.1L52.8 26c-.1-1.1-.3-2-.7-2.5-.3-.5-.8-.8-1.5-.8-.8 0-1.4.6-1.8 1.7s-.5 3.2-.5 6.1.2 4.8.5 5.9.9 1.6 1.7 1.6c.6 0 1.1-.3 1.5-1s.6-1.7.8-3zm1.1.9 3.7-1c.1.9.4 1.6.8 2.1s.9.7 1.5.7 1-.2 1.3-.6.5-.9.5-1.5-.2-1.2-.5-1.7c-.4-.5-1.2-1.3-2.4-2.4-1.7-1.5-2.9-2.7-3.5-3.7s-.9-2.1-.9-3.2c0-1.7.5-3 1.5-4s2.4-1.5 4-1.5 2.9.4 3.9 1.2 1.6 2 1.9 3.5l-3.4 1.2c-.1-.9-.3-1.5-.7-2-.3-.4-.8-.7-1.4-.7-.5 0-1 .2-1.3.5-.3.4-.5.8-.5 1.4 0 1 .9 2.3 2.7 3.8.4.4.8.6 1 .8 1.3 1.1 2.2 2.2 2.8 3.1.5 1 .8 2 .8 3.2 0 1.9-.5 3.4-1.6 4.5s-2.5 1.6-4.4 1.6c-1.6 0-2.9-.5-3.9-1.4-1-1-1.7-2.3-1.9-3.9zm12.9 0 3.7-1c.1.9.4 1.6.8 2.1s.9.7 1.5.7 1-.2 1.3-.6.5-.9.5-1.5-.2-1.2-.5-1.7-1.2-1.3-2.4-2.4c-1.7-1.5-2.9-2.7-3.5-3.7-.7-1.1-1-2.1-1-3.3 0-1.7.5-3 1.5-4s2.4-1.5 4-1.5 2.9.4 3.9 1.2 1.6 2 1.9 3.5l-3.4 1.2c-.1-.9-.3-1.5-.7-2-.3-.4-.8-.7-1.4-.7-.5 0-1 .2-1.3.5-.3.4-.5.8-.5 1.4 0 1 .9 2.3 2.7 3.8.4.4.8.6 1 .8 1.3 1.1 2.2 2.2 2.8 3.1.5 1 .8 2 .8 3.2 0 1.9-.5 3.4-1.6 4.5s-2.5 1.6-4.4 1.6c-1.6 0-2.9-.5-3.9-1.4s-1.6-2.2-1.8-3.8z" opacity="1" data-original="#ffffff" class=""></path><path fill="url(#a)" d="M74.4 70.7c0 .8 0 1.5-.1 2.3 0 .6-.1 1.3-.3 1.9-.2.5-.4.9-.7 1.3.3.4.6.9.7 1.4.2.6.3 1.3.3 2s.1 1.4.1 2.1h.6c.7 0 1.3.6 1.3 1.3v2.3c0 .7-.6 1.3-1.3 1.3h-.5c-.8 0-1.6 0-2.4-.3-.7-.2-1.2-.5-1.7-1s-.8-1.1-1-1.8c-.2-.8-.2-1.7-.2-2.5 0-.5 0-1.5-.1-1.9 0-.1-.1-.3-.2-.4s-.4-.1-.6-.1c-.7 0-1.3-.6-1.3-1.3V75c0-.7.6-1.3 1.3-1.3.1 0 .4 0 .5-.1l.1-.1c.1-.1.1-.3.2-.5.1-.4.1-1 .1-1.4 0-.9 0-2 .2-2.9.2-.7.5-1.3 1-1.8s1.2-.8 1.9-1 1.5-.2 2.2-.2h.5c.7 0 1.3.6 1.3 1.3v2.3c0 .7-.6 1.3-1.3 1.3-.1.1-.4.1-.6.1zm8.9 5.6c0 1.6-1.3 2.9-2.9 2.9s-2.9-1.3-2.9-2.9 1.3-2.9 2.9-2.9c1.6-.1 2.9 1.2 2.9 2.9zm9.8 0c0 1.6-1.3 2.9-2.9 2.9s-2.9-1.3-2.9-2.9 1.3-2.9 2.9-2.9c1.5-.1 2.9 1.2 2.9 2.9zm9.7 0c0 1.6-1.3 2.9-2.9 2.9S97 77.9 97 76.3s1.3-2.9 2.9-2.9c1.6-.1 2.9 1.2 2.9 2.9zm3 5.5c0-.7 0-1.5.1-2.3 0-.7.1-1.3.3-2 .2-.5.4-.9.7-1.3l-.1-.1c-.5-.6-.7-1.4-.8-2.2-.2-1-.2-2.2-.2-3.1v-.1h-.6c-.7 0-1.3-.6-1.3-1.3v-2.3c0-.7.6-1.3 1.3-1.3h.5c.8 0 1.6 0 2.3.3.7.2 1.3.5 1.7 1 .5.5.8 1.1 1 1.8.2.8.2 1.7.2 2.5 0 .5 0 1.5.1 1.9 0 .1.1.3.2.4s.4.1.6.1c.7 0 1.3.6 1.3 1.3v2.3c0 .7-.6 1.3-1.3 1.3-.1 0-.4 0-.5.1l-.1.1c-.1.2-.1.4-.2.5-.1.4-.1.9-.1 1.4 0 .9 0 2-.2 2.9-.2.7-.5 1.3-1 1.8s-1.2.8-1.9 1-1.5.2-2.2.2h-.5c-.7 0-1.3-.6-1.3-1.3v-2.3c0-.7.6-1.3 1.3-1.3z" opacity="1" data-original="url(#a)" class=""></path><path fill="#ffffff" d="M68.5 77.4v-2.3c.5 0 .8-.1 1-.2s.4-.3.6-.6.3-.6.4-1c.1-.3.1-.8.1-1.6 0-1.2.1-2.1.2-2.6s.3-.9.6-1.2.7-.5 1.3-.7c.4-.1 1-.2 1.8-.2h.5v2.3c-.7 0-1.2 0-1.4.1s-.3.2-.4.4-.1.4-.1.8 0 1.2-.1 2.3c0 .6-.1 1.1-.2 1.5s-.3.7-.5 1-.5.5-.9.8c.4.2.7.5.9.8s.4.6.5 1.1c.1.4.2 1 .2 1.7 0 1.1.1 1.7.1 2 0 .4 0 .7.2.9.1.2.3.3.5.4s.7.1 1.3.1v2.3h-.5c-.9 0-1.5-.1-2-.2s-.8-.4-1.2-.7c-.3-.3-.5-.7-.6-1.2s-.2-1.2-.2-2.2c0-1.2-.1-1.9-.2-2.3-.1-.5-.4-.9-.6-1.1-.3-.2-.7-.4-1.3-.4zM82 76.3c0 .9-.7 1.6-1.6 1.6s-1.6-.7-1.6-1.6.7-1.6 1.6-1.6 1.6.7 1.6 1.6zm9.7 0c0 .9-.7 1.6-1.6 1.6s-1.6-.7-1.6-1.6.7-1.6 1.6-1.6 1.6.7 1.6 1.6zm9.8 0c0 .9-.7 1.6-1.6 1.6s-1.6-.7-1.6-1.6.7-1.6 1.6-1.6 1.6.7 1.6 1.6zm10.2 1.1c-.5 0-.8.1-1 .2s-.4.3-.6.6-.3.6-.4 1c-.1.3-.1.8-.1 1.6 0 1.2-.1 2.1-.2 2.6s-.3.9-.6 1.2-.7.5-1.3.7c-.4.1-1 .2-1.8.2h-.5v-2.3c.7 0 1.1 0 1.3-.1s.4-.2.5-.4.1-.4.2-.8c0-.4 0-1.1.1-2.2 0-.7.1-1.2.3-1.6.1-.4.3-.7.6-1 .2-.3.5-.5.9-.7-.5-.3-.8-.6-1-.9-.3-.4-.5-1-.6-1.6-.1-.4-.1-1.4-.2-2.9 0-.5 0-.8-.1-.9-.1-.2-.2-.3-.4-.4s-.7-.1-1.4-.1v-2.3h.5c.9 0 1.5.1 2 .2s.8.4 1.2.7c.3.3.5.7.6 1.2s.2 1.2.2 2.2c0 1.2 0 1.9.1 2.3.1.5.4.9.6 1.1.3.2.7.3 1.3.4v2z" opacity="1" data-original="#ffffff" class=""></path></g></g></svg>
