<svg xmlns="http://www.w3.org/2000/svg" version="1.1" xmlns:xlink="http://www.w3.org/1999/xlink" width="512" height="512" x="0" y="0" viewBox="0 0 32 32" style="enable-background:new 0 0 512 512" xml:space="preserve" class=""><g><path d="M10 16c0-1.61.62-3.13 1.745-4.28l1.43 1.398c-1.515 1.55-1.515 4.214 0 5.764l-1.43 1.398A6.088 6.088 0 0 1 10 16zm10.255 4.28C21.38 19.13 22 17.61 22 16s-.62-3.13-1.745-4.28l-1.43 1.398c1.515 1.55 1.515 4.214 0 5.764l1.43 1.398zM18 16a2 2 0 1 0-4 0 2 2 0 0 0 4 0zm-9.069 7.14 1.418-1.411C8.835 20.206 8 18.171 8 16s.835-4.206 2.35-5.729L8.93 8.861C7.041 10.76 6 13.296 6 16s1.041 5.239 2.931 7.14zm14.138 0C24.959 21.238 26 18.703 26 16s-1.04-5.239-2.931-7.14l-1.418 1.411C23.166 11.794 24 13.829 24 16s-.835 4.206-2.35 5.729zM6.099 26l1.423-1.406C5.25 22.297 4 19.244 4 16s1.25-6.297 3.522-8.594L6.099 6C3.456 8.674 2 12.226 2 16S3.456 23.326 6.1 26zM25.9 26C28.545 23.326 30 19.774 30 16s-1.456-7.326-4.099-10L24.48 7.406C26.749 9.703 28 12.756 28 16s-1.25 6.297-3.521 8.594z" fill="#000000" opacity="1" data-original="#000000" class=""></path></g></svg>
