<svg xmlns="http://www.w3.org/2000/svg" version="1.1" xmlns:xlink="http://www.w3.org/1999/xlink" width="512" height="512" x="0" y="0" viewBox="0 0 512 512" style="enable-background:new 0 0 512 512" xml:space="preserve" class=""><g><path fill="#fe73c5" d="M421.698 0H320c22.188 0 35.969 16.311 51.658 32L400 60.342c15.689 15.689 32 29.47 32 51.658V10.302C432 4.612 427.388 0 421.698 0z" opacity="1" data-original="#fe73c5" class=""></path><path fill="#57da55" d="M432 112c0-22.187-16.311-35.969-32-51.658L371.658 32C355.969 16.311 342.188 0 320 0H90.302C84.612 0 80 4.612 80 10.302V144l176 32 176-32z" opacity="1" data-original="#fe93d3" class=""></path><path fill="#fe73c5" d="m400 60.342-7.72-7.72c10.624 11.131 19.117 22.765 19.117 38.775v56.35L432 144v-32c0-22.188-16.311-35.969-32-51.658z" opacity="1" data-original="#fe73c5" class=""></path><path fill="#000000" d="M354.652 67.046V34.652C354.652 15.514 339.138 0 320 0a83.658 83.658 0 0 1 59.155 24.503l28.342 28.342A83.658 83.658 0 0 1 432 112c0-19.138-15.514-34.652-34.652-34.652h-32.394c-5.69 0-10.302-4.613-10.302-10.302z" opacity="1" data-original="#feaee1" class=""></path><path fill="#ff3254" d="M80 144v325.698C80 475.388 84.612 480 90.302 480h331.396c5.69 0 10.302-4.612 10.302-10.302L411.396 144z" opacity="1" data-original="#eaf6ff" class=""></path><path fill="#000000" d="M411.396 144v305.095c0 5.69-4.612 10.302-10.302 10.302H80v10.302C80 475.388 84.612 480 90.302 480h331.396c5.69 0 10.302-4.612 10.302-10.302V144z" opacity="1" data-original="#c4e2ff" class=""></path><path fill="#000000" d="M341.892 416.061c2.748 52.948-34.543 89.91-87.481 86.967-52.148-2.898-74.933-29.05-74.933-29.05C167.254 457.869 160 437.782 160 416c0-53.019 42.981-96 96-96 21.782 0 41.869 7.254 57.978 19.478 0 .001 24.997 20.377 27.914 76.583z" opacity="1" data-original="#6ed5a1" class=""></path><path fill="#46cc8d" d="M313.978 339.479c12.224 16.109 19.479 36.196 19.479 57.978 0 53.019-42.981 96-96 96-21.782 0-41.869-7.254-57.978-19.479C197.01 497.08 224.762 512 256 512c53.019 0 96-42.981 96-96 0-31.238-14.92-58.99-38.022-76.521z" opacity="1" data-original="#46cc8d" class=""></path><g fill="#eaf6ff"><path d="M240 103.726a7.727 7.727 0 0 1-5.464-13.19L253.073 72l-18.537-18.537a7.727 7.727 0 0 1 10.928-10.927l24 24a7.727 7.727 0 0 1 0 10.927l-24 24a7.703 7.703 0 0 1-5.464 2.263zM152 103.726a7.708 7.708 0 0 1-5.464-2.263l-24-24a7.727 7.727 0 0 1 0-10.927l24-24a7.727 7.727 0 0 1 10.928 10.927L138.927 72l18.537 18.537A7.727 7.727 0 0 1 152 103.726zM183.994 103.728a7.727 7.727 0 0 1-6.905-11.183l24-48a7.727 7.727 0 0 1 13.821 6.911l-24 48a7.727 7.727 0 0 1-6.916 4.272zM228.86 403.106a7.726 7.726 0 0 0-10.927-.013l-.129.129c5.354-15.963 20.453-27.496 38.196-27.496a40.175 40.175 0 0 1 27.075 10.46 7.726 7.726 0 1 0 10.392-11.436 55.593 55.593 0 0 0-37.468-14.477c-27.02 0-49.61 19.33-54.668 44.888l-2.087-2.092a7.727 7.727 0 0 0-10.94 10.913l14.79 14.826a7.727 7.727 0 0 0 5.461 2.27h.009a7.726 7.726 0 0 0 5.457-2.257l14.826-14.79a7.724 7.724 0 0 0 .013-10.925zM323.695 418.017l-14.79-14.826a7.727 7.727 0 0 0-5.461-2.27h-.009a7.726 7.726 0 0 0-5.457 2.257l-14.826 14.79a7.726 7.726 0 1 0 10.914 10.94l.129-.129c-5.354 15.963-20.453 27.496-38.196 27.496a40.175 40.175 0 0 1-27.075-10.46 7.726 7.726 0 1 0-10.392 11.436A55.593 55.593 0 0 0 256 471.728c27.02 0 49.61-19.33 54.668-44.888l2.087 2.092a7.7 7.7 0 0 0 5.47 2.27 7.729 7.729 0 0 0 5.47-13.185z" fill="#ff3254" opacity="1" data-original="#eaf6ff" class=""></path></g><path fill="#685e68" d="M160 199.726h-32a7.726 7.726 0 1 1 0-15.452h32c4.268 0 7.726 3.459 7.726 7.726s-3.458 7.726-7.726 7.726zM160 327.726h-32a7.726 7.726 0 1 1 0-15.452h32c4.268 0 7.726 3.459 7.726 7.726s-3.458 7.726-7.726 7.726zM384 247.726l-224-.001a7.726 7.726 0 1 1 0-15.452l224 .001c4.268 0 7.726 3.459 7.726 7.726s-3.458 7.726-7.726 7.726zM335.999 279.726H160a7.726 7.726 0 1 1 0-15.452h175.999c4.268 0 7.726 3.459 7.726 7.726s-3.458 7.726-7.726 7.726z" opacity="1" data-original="#685e68" class=""></path></g></svg>
